<?xml version="1.0" encoding="UTF-8" standalone="no"?>
<!DOCTYPE svg PUBLIC "-//W3C//DTD SVG 1.1//EN"
 "http://www.w3.org/Graphics/SVG/1.1/DTD/svg11.dtd">
<!-- Generated by graphviz version 2.40.1 (20161225.0304)
 -->
<!-- Title: dependencies Pages: 1 -->
<svg width="1517pt" height="349pt"
 viewBox="0.00 0.00 1517.00 349.00" xmlns="http://www.w3.org/2000/svg" xmlns:xlink="http://www.w3.org/1999/xlink">
<g id="graph0" class="graph" transform="scale(1 1) rotate(0) translate(4 345)">
<title>dependencies</title>
<polygon fill="#ffffff" stroke="transparent" points="-4,4 -4,-345 1513,-345 1513,4 -4,4"/>
<text text-anchor="start" x="733.5091" y="-42.4" font-family="sans-serif" font-weight="bold" font-size="14.00" fill="#000000">Legend</text>
<polygon fill="#ffffb3" stroke="transparent" points="520.5,-10 520.5,-30 540.5,-30 540.5,-10 520.5,-10"/>
<text text-anchor="start" x="544.129" y="-15.4" font-family="sans-serif" font-size="14.00" fill="#000000"> &#160;Declarations</text>
<polygon fill="#8dd3c7" stroke="transparent" points="633.5,-10 633.5,-30 653.5,-30 653.5,-10 633.5,-10"/>
<text text-anchor="start" x="657.2251" y="-15.4" font-family="sans-serif" font-size="14.00" fill="#000000"> &#160;Module</text>
<polygon fill="#80b1d3" stroke="transparent" points="719.5,-10 719.5,-30 739.5,-30 739.5,-10 719.5,-10"/>
<text text-anchor="start" x="743.2812" y="-15.4" font-family="sans-serif" font-size="14.00" fill="#000000"> &#160;Bootstrap</text>
<polygon fill="#fdb462" stroke="transparent" points="816.5,-10 816.5,-30 836.5,-30 836.5,-10 816.5,-10"/>
<text text-anchor="start" x="840.1732" y="-15.4" font-family="sans-serif" font-size="14.00" fill="#000000"> &#160;Providers</text>
<polygon fill="#fb8072" stroke="transparent" points="912.5,-10 912.5,-30 932.5,-30 932.5,-10 912.5,-10"/>
<text text-anchor="start" x="936.2258" y="-15.4" font-family="sans-serif" font-size="14.00" fill="#000000"> &#160;Exports</text>
<g id="clust1" class="cluster">
<title>cluster_AppModule</title>
<polygon fill="none" stroke="#000000" stroke-dasharray="1,5" points="8,-70 8,-333 1501,-333 1501,-70 8,-70"/>
</g>
<g id="clust2" class="cluster">
<title>cluster_AppModule_declarations</title>
<polygon fill="none" stroke="#000000" points="323,-143 323,-195 1481,-195 1481,-143 323,-143"/>
</g>
<g id="clust3" class="cluster">
<title>cluster_AppModule_AppComponent_providers</title>
<polygon fill="none" stroke="#000000" points="1383,-78 1383,-130 1481,-130 1481,-78 1383,-78"/>
</g>
<g id="clust14" class="cluster">
<title>cluster_AppModule_bootstrap</title>
<polygon fill="none" stroke="#000000" points="754,-273 754,-325 878,-325 878,-273 754,-273"/>
</g>
<g id="clust15" class="cluster">
<title>cluster_AppModule_providers</title>
<polygon fill="none" stroke="#000000" points="16,-143 16,-195 315,-195 315,-143 16,-143"/>
</g>
<!-- AppComponent -->
<g id="node1" class="node">
<title>AppComponent</title>
<polygon fill="#ffffb3" stroke="#000000" points="1472.9399,-187 1367.0601,-187 1367.0601,-151 1472.9399,-151 1472.9399,-187"/>
<text text-anchor="middle" x="1420" y="-164.8" font-family="Times,serif" font-size="14.00" fill="#000000">AppComponent</text>
</g>
<!-- AppModule -->
<g id="node10" class="node">
<title>AppModule</title>
<polygon fill="#8dd3c7" stroke="#000000" points="857.6571,-252 854.6571,-256 833.6571,-256 830.6571,-252 774.3429,-252 774.3429,-216 857.6571,-216 857.6571,-252"/>
<text text-anchor="middle" x="816" y="-229.8" font-family="Times,serif" font-size="14.00" fill="#000000">AppModule</text>
</g>
<!-- AppComponent&#45;&gt;AppModule -->
<g id="edge1" class="edge">
<title>AppComponent&#45;&gt;AppModule</title>
<path fill="none" stroke="#000000" d="M1420,-187.0109C1420,-209.4852 1420,-245 1420,-245 1420,-245 867.9926,-245 867.9926,-245"/>
<polygon fill="#000000" stroke="#000000" points="867.9926,-241.5001 857.9926,-245 867.9925,-248.5001 867.9926,-241.5001"/>
</g>
<!-- CanvasComponent -->
<g id="node2" class="node">
<title>CanvasComponent</title>
<polygon fill="#ffffb3" stroke="#000000" points="1349.0436,-187 1226.9564,-187 1226.9564,-151 1349.0436,-151 1349.0436,-187"/>
<text text-anchor="middle" x="1288" y="-164.8" font-family="Times,serif" font-size="14.00" fill="#000000">CanvasComponent</text>
</g>
<!-- CanvasComponent&#45;&gt;AppModule -->
<g id="edge3" class="edge">
<title>CanvasComponent&#45;&gt;AppModule</title>
<path fill="none" stroke="#000000" d="M1288,-187.1289C1288,-207.5724 1288,-238 1288,-238 1288,-238 867.8869,-238 867.8869,-238"/>
<polygon fill="#000000" stroke="#000000" points="867.8869,-234.5001 857.8869,-238 867.8868,-241.5001 867.8869,-234.5001"/>
</g>
<!-- MenuComponent -->
<g id="node3" class="node">
<title>MenuComponent</title>
<polygon fill="#ffffb3" stroke="#000000" points="1208.9916,-187 1095.0084,-187 1095.0084,-151 1208.9916,-151 1208.9916,-187"/>
<text text-anchor="middle" x="1152" y="-164.8" font-family="Times,serif" font-size="14.00" fill="#000000">MenuComponent</text>
</g>
<!-- MenuComponent&#45;&gt;AppModule -->
<g id="edge4" class="edge">
<title>MenuComponent&#45;&gt;AppModule</title>
<path fill="none" stroke="#000000" d="M1152,-187.2667C1152,-205.5552 1152,-231 1152,-231 1152,-231 867.8753,-231 867.8753,-231"/>
<polygon fill="#000000" stroke="#000000" points="867.8753,-227.5001 857.8753,-231 867.8752,-234.5001 867.8753,-227.5001"/>
</g>
<!-- PanelComponent -->
<g id="node4" class="node">
<title>PanelComponent</title>
<polygon fill="#ffffb3" stroke="#000000" points="1077.4356,-187 964.5644,-187 964.5644,-151 1077.4356,-151 1077.4356,-187"/>
<text text-anchor="middle" x="1021" y="-164.8" font-family="Times,serif" font-size="14.00" fill="#000000">PanelComponent</text>
</g>
<!-- PanelComponent&#45;&gt;AppModule -->
<g id="edge5" class="edge">
<title>PanelComponent&#45;&gt;AppModule</title>
<path fill="none" stroke="#000000" d="M1021,-187.0091C1021,-203.0494 1021,-224 1021,-224 1021,-224 867.9795,-224 867.9795,-224"/>
<polygon fill="#000000" stroke="#000000" points="867.9795,-220.5001 857.9795,-224 867.9795,-227.5001 867.9795,-220.5001"/>
</g>
<!-- AccordionDirective -->
<g id="node5" class="node">
<title>AccordionDirective</title>
<polygon fill="#ffffb3" stroke="#000000" points="946.6699,-187 819.3301,-187 819.3301,-151 946.6699,-151 946.6699,-187"/>
<text text-anchor="middle" x="883" y="-164.8" font-family="Times,serif" font-size="14.00" fill="#000000">AccordionDirective</text>
</g>
<!-- AccordionDirective&#45;&gt;AppModule -->
<g id="edge6" class="edge">
<title>AccordionDirective&#45;&gt;AppModule</title>
<path fill="none" stroke="#000000" d="M838.6217,-187.1061C838.6217,-187.1061 838.6217,-205.991 838.6217,-205.991"/>
<polygon fill="#000000" stroke="#000000" points="835.1217,-205.9909 838.6217,-215.991 842.1217,-205.991 835.1217,-205.9909"/>
</g>
<!-- RotateDirective -->
<g id="node6" class="node">
<title>RotateDirective</title>
<polygon fill="#ffffb3" stroke="#000000" points="801.1305,-187 696.8695,-187 696.8695,-151 801.1305,-151 801.1305,-187"/>
<text text-anchor="middle" x="749" y="-164.8" font-family="Times,serif" font-size="14.00" fill="#000000">RotateDirective</text>
</g>
<!-- RotateDirective&#45;&gt;AppModule -->
<g id="edge7" class="edge">
<title>RotateDirective&#45;&gt;AppModule</title>
<path fill="none" stroke="#000000" d="M787.7434,-187.1061C787.7434,-187.1061 787.7434,-205.991 787.7434,-205.991"/>
<polygon fill="#000000" stroke="#000000" points="784.2434,-205.9909 787.7434,-215.991 791.2434,-205.991 784.2434,-205.9909"/>
</g>
<!-- DrawDirective -->
<g id="node7" class="node">
<title>DrawDirective</title>
<polygon fill="#ffffb3" stroke="#000000" points="678.6713,-187 579.3287,-187 579.3287,-151 678.6713,-151 678.6713,-187"/>
<text text-anchor="middle" x="629" y="-164.8" font-family="Times,serif" font-size="14.00" fill="#000000">DrawDirective</text>
</g>
<!-- DrawDirective&#45;&gt;AppModule -->
<g id="edge8" class="edge">
<title>DrawDirective&#45;&gt;AppModule</title>
<path fill="none" stroke="#000000" d="M629,-187.2396C629,-202.5706 629,-222 629,-222 629,-222 764.0335,-222 764.0335,-222"/>
<polygon fill="#000000" stroke="#000000" points="764.0336,-225.5001 774.0335,-222 764.0335,-218.5001 764.0336,-225.5001"/>
</g>
<!-- UploadDirective -->
<g id="node8" class="node">
<title>UploadDirective</title>
<polygon fill="#ffffb3" stroke="#000000" points="561.795,-187 452.205,-187 452.205,-151 561.795,-151 561.795,-187"/>
<text text-anchor="middle" x="507" y="-164.8" font-family="Times,serif" font-size="14.00" fill="#000000">UploadDirective</text>
</g>
<!-- UploadDirective&#45;&gt;AppModule -->
<g id="edge9" class="edge">
<title>UploadDirective&#45;&gt;AppModule</title>
<path fill="none" stroke="#000000" d="M507,-187.0225C507,-204.3734 507,-228 507,-228 507,-228 764.3269,-228 764.3269,-228"/>
<polygon fill="#000000" stroke="#000000" points="764.3269,-231.5001 774.3269,-228 764.3269,-224.5001 764.3269,-231.5001"/>
</g>
<!-- ImageDirective -->
<g id="node9" class="node">
<title>ImageDirective</title>
<polygon fill="#ffffb3" stroke="#000000" points="434.5632,-187 331.4368,-187 331.4368,-151 434.5632,-151 434.5632,-187"/>
<text text-anchor="middle" x="383" y="-164.8" font-family="Times,serif" font-size="14.00" fill="#000000">ImageDirective</text>
</g>
<!-- ImageDirective&#45;&gt;AppModule -->
<g id="edge10" class="edge">
<title>ImageDirective&#45;&gt;AppModule</title>
<path fill="none" stroke="#000000" d="M383,-187.1061C383,-206.3391 383,-234 383,-234 383,-234 764.0887,-234 764.0887,-234"/>
<polygon fill="#000000" stroke="#000000" points="764.0887,-237.5001 774.0887,-234 764.0887,-230.5001 764.0887,-237.5001"/>
</g>
<!-- AppComponent  -->
<g id="node12" class="node">
<title>AppComponent </title>
<polygon fill="#80b1d3" stroke="#000000" points="870.439,-317 761.561,-317 761.561,-281 870.439,-281 870.439,-317"/>
<text text-anchor="middle" x="816" y="-294.8" font-family="Times,serif" font-size="14.00" fill="#000000">AppComponent </text>
</g>
<!-- AppModule&#45;&gt;AppComponent  -->
<g id="edge11" class="edge">
<title>AppModule&#45;&gt;AppComponent </title>
<path fill="none" stroke="#000000" stroke-dasharray="1,5" d="M816,-252.1061C816,-252.1061 816,-270.991 816,-270.991"/>
<polygon fill="#000000" stroke="#000000" points="812.5001,-270.9909 816,-280.991 819.5001,-270.991 812.5001,-270.9909"/>
</g>
<!-- Globals -->
<g id="node11" class="node">
<title>Globals</title>
<ellipse fill="#fdb462" stroke="#000000" cx="1432" cy="-104" rx="41.149" ry="18"/>
<text text-anchor="middle" x="1432" y="-99.8" font-family="Times,serif" font-size="14.00" fill="#000000">Globals</text>
</g>
<!-- Globals&#45;&gt;AppComponent -->
<g id="edge2" class="edge">
<title>Globals&#45;&gt;AppComponent</title>
<path fill="none" stroke="#000000" d="M1431.8225,-122.1061C1431.8225,-122.1061 1431.8225,-140.991 1431.8225,-140.991"/>
<polygon fill="#000000" stroke="#000000" points="1428.3226,-140.9909 1431.8225,-150.991 1435.3226,-140.991 1428.3226,-140.9909"/>
</g>
<!-- Globals&#45;&gt;AppModule -->
<g id="edge14" class="edge">
<title>Globals&#45;&gt;AppModule</title>
<path fill="none" stroke="#000000" d="M1390.7314,-104C1251.8919,-104 810.365,-104 810.365,-104 810.365,-104 810.365,-205.9241 810.365,-205.9241"/>
<polygon fill="#000000" stroke="#000000" points="806.8651,-205.924 810.365,-215.9241 813.8651,-205.9241 806.8651,-205.924"/>
</g>
<!-- CanvasService -->
<g id="node13" class="node">
<title>CanvasService</title>
<ellipse fill="#fdb462" stroke="#000000" cx="239" cy="-169" rx="68.3362" ry="18"/>
<text text-anchor="middle" x="239" y="-164.8" font-family="Times,serif" font-size="14.00" fill="#000000">CanvasService</text>
</g>
<!-- CanvasService&#45;&gt;AppModule -->
<g id="edge12" class="edge">
<title>CanvasService&#45;&gt;AppModule</title>
<path fill="none" stroke="#000000" d="M239,-187.2843C239,-208.3211 239,-240 239,-240 239,-240 764.0388,-240 764.0388,-240"/>
<polygon fill="#000000" stroke="#000000" points="764.0388,-243.5001 774.0388,-240 764.0388,-236.5001 764.0388,-243.5001"/>
</g>
<!-- ImageService -->
<g id="node14" class="node">
<title>ImageService</title>
<ellipse fill="#fdb462" stroke="#000000" cx="88" cy="-169" rx="64.2417" ry="18"/>
<text text-anchor="middle" x="88" y="-164.8" font-family="Times,serif" font-size="14.00" fill="#000000">ImageService</text>
</g>
<!-- ImageService&#45;&gt;AppModule -->
<g id="edge13" class="edge">
<title>ImageService&#45;&gt;AppModule</title>
<path fill="none" stroke="#000000" d="M88,-187.2479C88,-210.0179 88,-246 88,-246 88,-246 764.2448,-246 764.2448,-246"/>
<polygon fill="#000000" stroke="#000000" points="764.2448,-249.5001 774.2448,-246 764.2448,-242.5001 764.2448,-249.5001"/>
</g>
</g>
</svg>
